<?xml version="1.0" encoding="utf-8" ?>
<svg baseProfile="full" height="393" version="1.1" width="393" xmlns="http://www.w3.org/2000/svg" xmlns:ev="http://www.w3.org/2001/xml-events" xmlns:xlink="http://www.w3.org/1999/xlink"><defs /><circle cx="196" cy="196" fill="black" r="196" /><path d="M 117,96 L 116,97 L 110,97 L 109,98 L 107,98 L 106,99 L 104,99 L 103,100 L 101,100 L 100,101 L 99,101 L 97,103 L 96,103 L 95,104 L 94,104 L 91,107 L 91,108 L 88,111 L 88,112 L 87,113 L 87,115 L 86,116 L 86,128 L 87,129 L 87,132 L 88,133 L 88,134 L 89,134 L 90,133 L 93,133 L 93,131 L 96,128 L 97,128 L 99,126 L 100,126 L 101,125 L 102,125 L 103,124 L 105,124 L 106,123 L 109,123 L 110,122 L 126,122 L 127,123 L 132,123 L 133,124 L 135,124 L 137,126 L 136,127 L 136,130 L 135,131 L 135,134 L 134,135 L 134,138 L 133,139 L 133,142 L 132,143 L 132,146 L 131,147 L 131,150 L 130,151 L 130,154 L 129,155 L 129,158 L 128,159 L 128,161 L 127,162 L 127,165 L 126,166 L 126,169 L 125,170 L 125,173 L 124,174 L 124,177 L 123,178 L 123,180 L 122,181 L 122,184 L 121,185 L 120,185 L 119,186 L 117,186 L 116,185 L 114,185 L 113,186 L 111,186 L 110,187 L 109,187 L 108,188 L 108,190 L 109,191 L 109,194 L 110,195 L 110,196 L 111,197 L 112,197 L 113,198 L 114,198 L 115,199 L 116,199 L 118,201 L 118,202 L 117,203 L 117,211 L 116,212 L 116,220 L 115,221 L 115,225 L 114,226 L 114,229 L 113,230 L 113,232 L 112,233 L 112,235 L 111,236 L 111,238 L 110,239 L 110,241 L 109,242 L 109,244 L 108,245 L 108,248 L 107,249 L 107,253 L 106,254 L 106,258 L 105,259 L 105,277 L 106,278 L 106,282 L 107,283 L 107,286 L 108,287 L 108,289 L 109,290 L 109,291 L 110,292 L 110,293 L 111,294 L 111,295 L 113,297 L 113,298 L 115,300 L 115,301 L 116,302 L 121,302 L 122,301 L 124,301 L 125,300 L 126,300 L 128,298 L 129,298 L 132,295 L 132,294 L 134,292 L 134,291 L 135,290 L 135,289 L 136,288 L 136,286 L 137,285 L 137,283 L 138,282 L 138,276 L 139,275 L 139,259 L 140,258 L 140,255 L 141,254 L 141,253 L 142,252 L 142,249 L 143,248 L 143,246 L 144,245 L 144,243 L 145,242 L 145,237 L 146,236 L 146,234 L 147,233 L 147,231 L 148,230 L 148,228 L 149,227 L 149,214 L 150,213 L 150,210 L 151,209 L 151,207 L 153,205 L 161,205 L 162,206 L 171,206 L 172,207 L 200,207 L 201,206 L 202,206 L 202,205 L 203,204 L 203,200 L 202,199 L 202,198 L 201,198 L 200,197 L 193,197 L 192,198 L 188,198 L 187,199 L 186,198 L 175,198 L 174,197 L 168,197 L 167,196 L 160,196 L 159,195 L 158,195 L 157,194 L 157,192 L 158,191 L 158,188 L 159,187 L 159,184 L 160,183 L 160,180 L 161,179 L 161,177 L 162,176 L 162,173 L 163,172 L 163,169 L 164,168 L 164,165 L 165,164 L 165,161 L 166,160 L 166,158 L 167,157 L 167,154 L 168,153 L 168,150 L 169,149 L 169,146 L 170,145 L 170,143 L 171,142 L 171,132 L 172,131 L 190,131 L 191,132 L 204,132 L 205,133 L 209,133 L 210,134 L 214,134 L 215,135 L 224,135 L 225,136 L 230,136 L 231,137 L 236,137 L 237,138 L 244,138 L 245,139 L 256,139 L 257,140 L 274,140 L 275,139 L 284,139 L 285,138 L 291,138 L 292,137 L 295,137 L 296,136 L 300,136 L 301,135 L 303,135 L 304,134 L 306,134 L 307,133 L 309,133 L 310,132 L 311,132 L 312,131 L 313,131 L 314,130 L 315,130 L 316,129 L 317,129 L 318,128 L 319,128 L 321,126 L 322,126 L 324,124 L 325,124 L 331,118 L 331,117 L 333,115 L 333,110 L 325,110 L 324,111 L 322,111 L 321,112 L 320,112 L 319,113 L 318,113 L 317,114 L 316,114 L 315,115 L 314,115 L 313,116 L 312,116 L 311,117 L 309,117 L 308,118 L 305,118 L 304,119 L 301,119 L 300,120 L 295,120 L 294,121 L 287,121 L 286,122 L 264,122 L 263,121 L 255,121 L 254,120 L 252,120 L 251,121 L 250,120 L 244,120 L 243,119 L 237,119 L 236,118 L 233,118 L 232,117 L 227,117 L 226,116 L 222,116 L 221,115 L 210,115 L 209,114 L 204,114 L 203,113 L 200,113 L 199,112 L 197,112 L 196,111 L 193,111 L 192,110 L 189,110 L 188,109 L 187,109 L 186,108 L 185,108 L 183,106 L 182,106 L 180,104 L 180,103 L 179,102 L 179,101 L 178,100 L 178,99 L 177,99 L 176,98 L 175,98 L 174,97 L 144,97 L 143,98 L 137,98 L 136,97 L 130,97 L 129,96 Z" fill="#a259ff" /></svg>